<?xml version="1.0" encoding="utf-8"?>
<!-- Generator: Adobe Illustrator 27.5.0, SVG Export Plug-In . SVG Version: 6.00 Build 0)  -->
<svg version="1.1" xmlns="http://www.w3.org/2000/svg" xmlns:xlink="http://www.w3.org/1999/xlink" x="0px" y="0px"
	 viewBox="0 0 500 500" style="enable-background:new 0 0 500 500;" xml:space="preserve">
<g id="BACKGROUND">
	<rect style="fill:#031435;" width="500" height="500"/>
</g>
<g id="OBJECTS">
	<g>
		<g>
			<path style="fill:#FFBF0B;" d="M60.16,271.357c-16.604,0-30.065,13.46-30.065,30.065c0,16.604,13.46,30.065,30.065,30.065
				s30.065-13.46,30.065-30.065C90.225,284.817,76.764,271.357,60.16,271.357z M50.331,319.077v-35.311l27.924,17.655
				L50.331,319.077z"/>
			<path style="fill:#FE9C0A;" d="M78.255,301.422l-27.924,17.655v-17.655H30.095c0,16.604,13.46,30.065,30.065,30.065
				c16.604,0,30.064-13.46,30.064-30.065H78.255z"/>
		</g>
		<g>
			<path style="fill:#FFBF0B;" d="M52.753,65.179c-2.539-2.539-6.656-2.539-9.195,0c-2.539,2.539-2.539,6.656,0,9.195l16.718,16.718
				L43.558,107.81c-2.539,2.539-2.539,6.656,0,9.195c1.27,1.27,2.934,1.904,4.597,1.904c1.664,0,3.328-0.635,4.597-1.904
				l25.913-25.913L52.753,65.179z"/>
			<path style="fill:#FE9C0A;" d="M60.276,91.092L43.558,107.81c-2.539,2.539-2.539,6.656,0,9.195
				c1.27,1.27,2.934,1.904,4.597,1.904c1.664,0,3.328-0.635,4.597-1.904l25.913-25.913H60.276z"/>
		</g>
		<g>
			<polygon style="fill:#FFBF0B;" points="166.284,91.092 127.422,63.579 127.422,118.606 			"/>
			<polygon style="fill:#FE9C0A;" points="127.422,118.606 166.284,91.092 127.422,91.092 			"/>
		</g>
		<g>
			<path style="fill:#FFBF0B;" d="M221.827,68.505h-25.189l22.587,22.587l-22.587,22.587l25.189,0l22.587-22.587L221.827,68.505z
				 M252.305,68.505h-25.189l22.587,22.587l-22.587,22.587h25.189l22.587-22.587L252.305,68.505z"/>
			<path style="fill:#FE9C0A;" d="M219.226,91.092l-22.587,22.587l25.189,0l22.587-22.587H219.226z M249.703,91.092l-22.587,22.587
				h25.189l22.587-22.587H249.703z"/>
		</g>
		<g>
			<g>
				<polygon style="fill:#FFBF0B;" points="372.49,91.092 339.851,67.984 339.851,114.2 				"/>
				<polygon style="fill:#FFBF0B;" points="300.152,91.092 332.791,67.984 332.791,114.2 				"/>
			</g>
			<polygon style="fill:#FE9C0A;" points="339.851,114.2 372.49,91.092 339.851,91.092 			"/>
			<polygon style="fill:#FE9C0A;" points="332.791,114.2 300.152,91.092 332.791,91.092 			"/>
		</g>
		<g>
			<path style="fill:#FFBF0B;" d="M468.905,87.669l-29.38-20.8l0,11.734c-10.36,0.981-41.482,6.448-41.482,36.714
				c0,0,8.842-22.961,41.482-20.551v13.703L468.905,87.669z"/>
			<path style="fill:#FE9C0A;" d="M439.525,94.765l0,13.703l29.38-20.8c-66.575-9.201-70.862,27.648-70.862,27.648
				S406.885,92.355,439.525,94.765z"/>
		</g>
		<g>
			<g>
				<polygon style="fill:#FFBF0B;" points="48.598,220.911 40.373,212.686 63.498,189.561 40.373,166.437 48.598,158.212 
					79.947,189.561 				"/>
			</g>
			<g>
				<polygon style="fill:#FE9C0A;" points="48.598,220.911 40.373,212.686 63.498,189.561 79.947,189.561 				"/>
			</g>
		</g>
		<g>
			<path style="fill:#FFBF0B;" d="M132.865,199.492c-2.456-3.456-3.54-7.683-3.053-11.9c0.956-8.27,7.674-14.495,15.681-15.129
				v8.392l17.487-12.381l-17.487-12.381v8.09c-12.142,0.645-22.449,9.98-23.892,22.459c-0.722,6.249,0.885,12.513,4.526,17.637
				c0.806,1.134,2.079,1.739,3.372,1.739c0.828,0,1.664-0.247,2.39-0.764C133.751,203.933,134.188,201.353,132.865,199.492z"/>
			<path style="fill:#FE9C0A;" d="M167.578,174.843c-1.323-1.861-3.903-2.298-5.763-0.975c-1.86,1.322-2.297,3.902-0.975,5.763
				c2.456,3.457,3.54,7.683,3.053,11.9c-0.956,8.27-7.678,14.491-15.681,15.127v-8.39l-17.487,12.381l17.487,12.381v-8.086
				c12.146-0.645,22.449-9.984,23.892-22.462C172.827,186.231,171.219,179.968,167.578,174.843z"/>
		</g>
		<g>
			<polygon style="fill:#FFBF0B;" points="200.726,179.568 211.4,189.561 200.726,199.555 236.933,199.555 236.933,213.542 
				270.805,189.561 236.934,165.581 236.934,179.568 			"/>
			<polygon style="fill:#FE9C0A;" points="211.4,189.561 200.726,199.555 236.933,199.555 236.933,213.542 270.805,189.561 			"/>
		</g>
		<g>
			<polygon style="fill:#FFBF0B;" points="372.077,189.561 338.205,165.581 338.205,179.568 300.566,179.568 300.566,199.555 
				338.205,199.555 338.205,213.542 			"/>
			<polygon style="fill:#FE9C0A;" points="300.566,199.554 338.205,199.554 338.205,213.542 372.077,189.561 300.566,189.561 			"/>
		</g>
		<g>
			<path style="fill:#FFBF0B;" d="M465.604,186.746l-24.452-17.312c-2.285-1.617-5.443,0.016-5.443,2.815v7.319h-34.19
				c-1.905,0-3.449,1.544-3.449,3.449v13.087c0,1.905,1.544,3.45,3.449,3.45h34.19v7.319c0,2.799,3.158,4.433,5.443,2.815
				l24.453-17.312C467.546,191.002,467.546,188.121,465.604,186.746z"/>
			<path style="fill:#FE9C0A;" d="M398.069,189.495v6.61c0,1.905,1.544,3.449,3.449,3.449h34.19v7.319
				c0,2.799,3.158,4.433,5.443,2.815l24.453-17.312c0.991-0.702,1.469-1.796,1.449-2.882H398.069z"/>
		</g>
		<g>
			<path style="fill:#FFBF0B;" d="M168.14,301.413c-2.282,0-4.133,1.85-4.133,4.133c0,9.459-7.695,17.154-17.154,17.154
				c-9.459,0-17.154-7.695-17.154-17.154c0-8.471,6.173-15.523,14.257-16.904v7.998l17.487-12.381l-17.487-12.381v8.418
				c-12.656,1.443-22.522,12.214-22.522,25.25c0,14.016,11.403,25.42,25.42,25.42c14.016,0,25.419-11.404,25.419-25.42
				C172.272,303.263,170.422,301.413,168.14,301.413z"/>
			<path style="fill:#FE9C0A;" d="M168.14,301.413c-2.282,0-4.133,1.85-4.133,4.133c0,9.459-7.695,17.154-17.154,17.154
				c-9.459,0-17.154-7.695-17.154-17.154c0-1.423,0.188-2.801,0.516-4.124h-8.44c-0.22,1.343-0.341,2.719-0.341,4.124
				c0,14.016,11.403,25.419,25.42,25.419s25.419-11.403,25.419-25.419C172.272,303.263,170.422,301.413,168.14,301.413z"/>
		</g>
		<g>
			<path style="fill:#FFBF0B;" d="M257.026,275.217h-16.788l15.054,26.205l-15.054,26.204h16.788l15.054-26.204L257.026,275.217z
				 M216.238,275.217H199.45l15.054,26.205l-15.054,26.204h16.788l15.054-26.204L216.238,275.217z M236.632,275.217h-16.788
				l15.054,26.205l-15.054,26.204h16.788l15.054-26.204L236.632,275.217z"/>
			<g>
				<polygon style="fill:#FE9C0A;" points="240.238,327.626 257.026,327.626 272.08,301.422 255.292,301.422 				"/>
				<polygon style="fill:#FE9C0A;" points="214.504,301.422 199.45,327.626 216.238,327.626 231.293,301.422 				"/>
				<polygon style="fill:#FE9C0A;" points="234.898,301.422 219.844,327.626 236.632,327.626 251.687,301.422 				"/>
			</g>
		</g>
		<g>
			<path style="fill:#FFBF0B;" d="M314.468,271.102c-2.971-2.971-7.788-2.971-10.759,0c-2.971,2.971-2.971,7.788,0,10.759
				l19.561,19.561l-19.561,19.561c-2.971,2.971-2.971,7.788,0,10.759c1.486,1.486,3.432,2.228,5.379,2.228
				c1.947,0,3.894-0.743,5.379-2.228l30.321-30.32L314.468,271.102z M340.841,271.102c-2.971-2.971-7.788-2.971-10.759,0
				c-2.971,2.971-2.971,7.788,0,10.759l19.561,19.561l-19.561,19.561c-2.971,2.971-2.971,7.788,0,10.759
				c1.485,1.485,3.432,2.228,5.379,2.228s3.894-0.743,5.38-2.228l30.32-30.32L340.841,271.102z"/>
			<g>
				<path style="fill:#FE9C0A;" d="M323.242,301.45l-19.533,19.533c-2.971,2.971-2.971,7.788,0,10.759
					c1.486,1.486,3.432,2.228,5.379,2.228c1.947,0,3.894-0.743,5.379-2.228l30.292-30.292H323.242z"/>
				<path style="fill:#FE9C0A;" d="M349.615,301.45l-19.533,19.533c-2.971,2.971-2.971,7.788,0,10.759
					c1.485,1.485,3.432,2.228,5.379,2.228s3.894-0.743,5.38-2.228l30.292-30.292H349.615z"/>
			</g>
		</g>
		<g>
			<path style="fill:#FFBF0B;" d="M467.299,294.662l-24.453-17.312c-1.889-1.338-4.423-1.653-6.401-0.445
				c-1.837,1.121-5.429,6.396-5.429,6.396s-0.662,0.936-0.662,2.53v1.152h-28.713c-1.94,0-3.793,0.938-4.932,2.477
				c0,0-3.995,4.579-3.995,7.14v13.087c0,3.402,2.769,6.171,6.171,6.171h31.469v4.598c0,2.317,1.278,4.417,3.335,5.48
				c0.897,0.465,1.87,0.694,2.839,0.694c1.251,0,2.496-0.383,3.563-1.138l24.358-17.245c2.047-1.553,4.207-4.636,5.102-6.498
				c0.301-0.626,0.353-1.345,0.353-2.05C469.904,297.702,468.931,295.818,467.299,294.662z M465.149,301.698l-24.453,17.313
				c-0.763,0.539-1.711,0.605-2.541,0.177c-0.829-0.429-1.324-1.242-1.324-2.176v-8.319h-35.19c-1.351,0-2.45-1.099-2.45-2.449
				v-13.087c0-1.351,1.099-2.449,2.45-2.449h35.19v-8.319c0-0.934,0.495-1.747,1.324-2.176c0.829-0.428,1.778-0.363,2.541,0.177
				l24.453,17.313c0.657,0.465,1.034,1.193,1.034,1.999C466.183,300.505,465.806,301.233,465.149,301.698z"/>
			<path style="fill:#FE9C0A;" d="M466.121,300.23c-0.128,0.589-0.463,1.108-0.972,1.468l-24.453,17.313
				c-0.763,0.539-1.711,0.605-2.541,0.177c-0.829-0.429-1.324-1.242-1.324-2.176v-8.319h-35.19c-1.351,0-2.45-1.099-2.45-2.449
				v-6.013h-6.478v9.457c0,3.402,2.769,6.171,6.171,6.171h31.469v4.598c0,2.317,1.278,4.417,3.335,5.48
				c0.897,0.465,1.87,0.694,2.839,0.694c1.251,0,2.496-0.383,3.563-1.138l24.358-17.245c2.047-1.553,4.207-4.636,5.102-6.498
				c0.226-0.47,0.312-0.991,0.34-1.52H466.121z"/>
		</g>
		<g>
			<path style="fill:#FFBF0B;" d="M53.615,406.208c-1.147,0-2.077,0.93-2.077,2.077c0,1.147,0.93,2.077,2.077,2.077
				c1.147,0,2.077-0.93,2.077-2.077C55.693,407.138,54.763,406.208,53.615,406.208z M64.385,406.208
				c-0.017,0-0.032,0.005-0.048,0.005c-0.016,0-0.032-0.005-0.048-0.005c-1.147,0-2.077,0.93-2.077,2.077
				c0,1.147,0.93,2.077,2.077,2.077c0.017,0,0.032-0.004,0.048-0.005c0.016,0,0.032,0.005,0.048,0.005
				c1.147,0,2.077-0.93,2.077-2.077C66.462,407.138,65.532,406.208,64.385,406.208z M64.385,411.479
				c-0.017,0-0.032,0.005-0.048,0.005c-0.016,0-0.032-0.005-0.048-0.005c-1.147,0-2.077,0.93-2.077,2.077
				c0,1.147,0.93,2.077,2.077,2.077c0.017,0,0.032-0.004,0.048-0.005c0.016,0,0.032,0.005,0.048,0.005
				c1.147,0,2.077-0.93,2.077-2.077C66.462,412.409,65.532,411.479,64.385,411.479z M59,400.938c-1.147,0-2.077,0.93-2.077,2.077
				c0,1.147,0.93,2.077,2.077,2.077c1.147,0,2.077-0.93,2.077-2.077C61.077,401.868,60.147,400.938,59,400.938z M59,411.479
				c-1.147,0-2.077,0.93-2.077,2.077c0,1.147,0.93,2.077,2.077,2.077c1.147,0,2.077-0.93,2.077-2.077
				C61.077,412.409,60.147,411.479,59,411.479z M53.615,400.938c-1.147,0-2.077,0.93-2.077,2.077c0,1.147,0.93,2.077,2.077,2.077
				c1.147,0,2.077-0.93,2.077-2.077C55.693,401.868,54.763,400.938,53.615,400.938z M59,406.208c-1.147,0-2.077,0.93-2.077,2.077
				c0,1.147,0.93,2.077,2.077,2.077c1.147,0,2.077-0.93,2.077-2.077C61.077,407.138,60.147,406.208,59,406.208z M75.058,411.479
				c-1.147,0-2.077,0.93-2.077,2.077c0,1.147,0.93,2.077,2.077,2.077c1.147,0,2.077-0.93,2.077-2.077
				C77.135,412.409,76.205,411.479,75.058,411.479z M69.673,400.938c-1.147,0-2.077,0.93-2.077,2.077
				c0,1.147,0.93,2.077,2.077,2.077c1.147,0,2.077-0.93,2.077-2.077C71.75,401.868,70.82,400.938,69.673,400.938z M75.058,406.208
				c-1.147,0-2.077,0.93-2.077,2.077c0,1.147,0.93,2.077,2.077,2.077c1.147,0,2.077-0.93,2.077-2.077
				C77.135,407.138,76.205,406.208,75.058,406.208z M69.673,411.479c-1.147,0-2.077,0.93-2.077,2.077
				c0,1.147,0.93,2.077,2.077,2.077c1.147,0,2.077-0.93,2.077-2.077C71.75,412.409,70.82,411.479,69.673,411.479z M64.385,400.938
				c-0.017,0-0.032,0.004-0.048,0.005c-0.016,0-0.032-0.005-0.048-0.005c-1.147,0-2.077,0.93-2.077,2.077
				c0,1.147,0.93,2.077,2.077,2.077c0.017,0,0.032-0.005,0.048-0.005c0.016,0,0.032,0.005,0.048,0.005
				c1.147,0,2.077-0.93,2.077-2.077C66.462,401.868,65.532,400.938,64.385,400.938z M69.673,406.208
				c-1.147,0-2.077,0.93-2.077,2.077c0,1.147,0.93,2.077,2.077,2.077c1.147,0,2.077-0.93,2.077-2.077
				C71.75,407.138,70.82,406.208,69.673,406.208z M37.558,406.208c-1.147,0-2.077,0.93-2.077,2.077c0,1.147,0.93,2.077,2.077,2.077
				c1.147,0,2.077-0.93,2.077-2.077C39.635,407.138,38.705,406.208,37.558,406.208z M37.558,411.479
				c-1.147,0-2.077,0.93-2.077,2.077c0,1.147,0.93,2.077,2.077,2.077c1.147,0,2.077-0.93,2.077-2.077
				C39.635,412.409,38.705,411.479,37.558,411.479z M75.058,400.938c-1.147,0-2.077,0.93-2.077,2.077
				c0,1.147,0.93,2.077,2.077,2.077c1.147,0,2.077-0.93,2.077-2.077C77.135,401.868,76.205,400.938,75.058,400.938z M32.173,400.938
				c-1.147,0-2.077,0.93-2.077,2.077c0,1.147,0.93,2.077,2.077,2.077c1.147,0,2.077-0.93,2.077-2.077
				C34.25,401.868,33.32,400.938,32.173,400.938z M32.173,406.208c-1.147,0-2.077,0.93-2.077,2.077c0,1.147,0.93,2.077,2.077,2.077
				c1.147,0,2.077-0.93,2.077-2.077C34.25,407.138,33.32,406.208,32.173,406.208z M32.173,411.479c-1.147,0-2.077,0.93-2.077,2.077
				c0,1.147,0.93,2.077,2.077,2.077c1.147,0,2.077-0.93,2.077-2.077C34.25,412.409,33.32,411.479,32.173,411.479z M37.558,400.938
				c-1.147,0-2.077,0.93-2.077,2.077c0,1.147,0.93,2.077,2.077,2.077c1.147,0,2.077-0.93,2.077-2.077
				C39.635,401.868,38.705,400.938,37.558,400.938z M53.615,411.479c-1.147,0-2.077,0.93-2.077,2.077
				c0,1.147,0.93,2.077,2.077,2.077c1.147,0,2.077-0.93,2.077-2.077C55.693,412.409,54.763,411.479,53.615,411.479z M48.23,406.208
				c-1.147,0-2.077,0.93-2.077,2.077c0,1.147,0.93,2.077,2.077,2.077c1.147,0,2.077-0.93,2.077-2.077
				C50.308,407.138,49.378,406.208,48.23,406.208z M48.23,411.479c-1.147,0-2.077,0.93-2.077,2.077c0,1.147,0.93,2.077,2.077,2.077
				c1.147,0,2.077-0.93,2.077-2.077C50.308,412.409,49.378,411.479,48.23,411.479z M48.23,400.938c-1.147,0-2.077,0.93-2.077,2.077
				c0,1.147,0.93,2.077,2.077,2.077c1.147,0,2.077-0.93,2.077-2.077C50.308,401.868,49.378,400.938,48.23,400.938z M42.942,411.479
				c-1.147,0-2.077,0.93-2.077,2.077c0,1.147,0.93,2.077,2.077,2.077c1.147,0,2.077-0.93,2.077-2.077
				C45.02,412.409,44.089,411.479,42.942,411.479z M42.942,406.208c-1.147,0-2.077,0.93-2.077,2.077c0,1.147,0.93,2.077,2.077,2.077
				c1.147,0,2.077-0.93,2.077-2.077C45.02,407.138,44.089,406.208,42.942,406.208z M42.942,400.938c-1.147,0-2.077,0.93-2.077,2.077
				c0,1.147,0.93,2.077,2.077,2.077c1.147,0,2.077-0.93,2.077-2.077C45.02,401.868,44.089,400.938,42.942,400.938z M80.442,400.938
				c-1.147,0-2.077,0.93-2.077,2.077c0,1.147,0.93,2.077,2.077,2.077c1.147,0,2.077-0.93,2.077-2.077
				C82.52,401.868,81.59,400.938,80.442,400.938z M91.212,390.398c-1.147,0-2.077,0.93-2.077,2.077c0,1.147,0.93,2.077,2.077,2.077
				c1.147,0,2.077-0.93,2.077-2.077C93.289,391.328,92.359,390.398,91.212,390.398z M96.597,416.749
				c-1.147,0-2.077,0.93-2.077,2.077c0,1.147,0.93,2.077,2.077,2.077c1.147,0,2.077-0.93,2.077-2.077
				C98.674,417.679,97.744,416.749,96.597,416.749z M96.597,406.208c-1.147,0-2.077,0.93-2.077,2.077
				c0,1.147,0.93,2.077,2.077,2.077c1.147,0,2.077-0.93,2.077-2.077C98.674,407.138,97.744,406.208,96.597,406.208z M96.597,411.479
				c-1.147,0-2.077,0.93-2.077,2.077c0,1.147,0.93,2.077,2.077,2.077c1.147,0,2.077-0.93,2.077-2.077
				C98.674,412.409,97.744,411.479,96.597,411.479z M91.212,400.938c-1.147,0-2.077,0.93-2.077,2.077
				c0,1.147,0.93,2.077,2.077,2.077c1.147,0,2.077-0.93,2.077-2.077C93.289,401.868,92.359,400.938,91.212,400.938z M91.212,395.668
				c-1.147,0-2.077,0.93-2.077,2.077c0,1.147,0.93,2.077,2.077,2.077c1.147,0,2.077-0.93,2.077-2.077
				C93.289,396.598,92.359,395.668,91.212,395.668z M101.981,400.938c-1.147,0-2.077,0.93-2.077,2.077
				c0,1.147,0.93,2.077,2.077,2.077c1.147,0,2.077-0.93,2.077-2.077C104.059,401.868,103.129,400.938,101.981,400.938z
				 M80.442,411.479c-1.147,0-2.077,0.93-2.077,2.077c0,1.147,0.93,2.077,2.077,2.077c1.147,0,2.077-0.93,2.077-2.077
				C82.52,412.409,81.59,411.479,80.442,411.479z M101.981,406.208c-1.147,0-2.077,0.93-2.077,2.077c0,1.147,0.93,2.077,2.077,2.077
				c1.147,0,2.077-0.93,2.077-2.077C104.059,407.138,103.129,406.208,101.981,406.208z M96.597,400.938
				c-1.147,0-2.077,0.93-2.077,2.077c0,1.147,0.93,2.077,2.077,2.077c1.147,0,2.077-0.93,2.077-2.077
				C98.674,401.868,97.744,400.938,96.597,400.938z M107.366,406.208c-1.147,0-2.077,0.93-2.077,2.077
				c0,1.147,0.93,2.077,2.077,2.077c1.147,0,2.077-0.93,2.077-2.077C109.443,407.138,108.513,406.208,107.366,406.208z
				 M96.597,395.668c-1.147,0-2.077,0.93-2.077,2.077c0,1.147,0.93,2.077,2.077,2.077c1.147,0,2.077-0.93,2.077-2.077
				C98.674,396.598,97.744,395.668,96.597,395.668z M101.981,411.479c-1.147,0-2.077,0.93-2.077,2.077
				c0,1.147,0.93,2.077,2.077,2.077c1.147,0,2.077-0.93,2.077-2.077C104.059,412.409,103.129,411.479,101.981,411.479z
				 M91.212,406.208c-1.147,0-2.077,0.93-2.077,2.077c0,1.147,0.93,2.077,2.077,2.077c1.147,0,2.077-0.93,2.077-2.077
				C93.289,407.138,92.359,406.208,91.212,406.208z M85.827,416.749c-1.147,0-2.077,0.93-2.077,2.077
				c0,1.147,0.93,2.077,2.077,2.077c1.147,0,2.077-0.93,2.077-2.077C87.904,417.679,86.974,416.749,85.827,416.749z M85.827,422.019
				c-1.147,0-2.077,0.93-2.077,2.077c0,1.147,0.93,2.077,2.077,2.077c1.147,0,2.077-0.93,2.077-2.077
				C87.904,422.949,86.974,422.019,85.827,422.019z M85.827,411.479c-1.147,0-2.077,0.93-2.077,2.077
				c0,1.147,0.93,2.077,2.077,2.077c1.147,0,2.077-0.93,2.077-2.077C87.904,412.409,86.974,411.479,85.827,411.479z M80.442,406.208
				c-1.147,0-2.077,0.93-2.077,2.077c0,1.147,0.93,2.077,2.077,2.077c1.147,0,2.077-0.93,2.077-2.077
				C82.52,407.138,81.59,406.208,80.442,406.208z M85.827,427.289c-1.147,0-2.077,0.93-2.077,2.077c0,1.147,0.93,2.077,2.077,2.077
				c1.147,0,2.077-0.93,2.077-2.077C87.904,428.219,86.974,427.289,85.827,427.289z M85.827,406.208
				c-1.147,0-2.077,0.93-2.077,2.077c0,1.147,0.93,2.077,2.077,2.077c1.147,0,2.077-0.93,2.077-2.077
				C87.904,407.138,86.974,406.208,85.827,406.208z M91.212,416.749c-1.147,0-2.077,0.93-2.077,2.077
				c0,1.147,0.93,2.077,2.077,2.077c1.147,0,2.077-0.93,2.077-2.077C93.289,417.679,92.359,416.749,91.212,416.749z M91.212,422.019
				c-1.147,0-2.077,0.93-2.077,2.077c0,1.147,0.93,2.077,2.077,2.077c1.147,0,2.077-0.93,2.077-2.077
				C93.289,422.949,92.359,422.019,91.212,422.019z M91.212,411.479c-1.147,0-2.077,0.93-2.077,2.077
				c0,1.147,0.93,2.077,2.077,2.077c1.147,0,2.077-0.93,2.077-2.077C93.289,412.409,92.359,411.479,91.212,411.479z M85.827,385.128
				c-1.147,0-2.077,0.93-2.077,2.077c0,1.147,0.93,2.077,2.077,2.077c1.147,0,2.077-0.93,2.077-2.077
				C87.904,386.058,86.974,385.128,85.827,385.128z M85.827,400.938c-1.147,0-2.077,0.93-2.077,2.077
				c0,1.147,0.93,2.077,2.077,2.077c1.147,0,2.077-0.93,2.077-2.077C87.904,401.868,86.974,400.938,85.827,400.938z M85.827,390.398
				c-1.147,0-2.077,0.93-2.077,2.077c0,1.147,0.93,2.077,2.077,2.077c1.147,0,2.077-0.93,2.077-2.077
				C87.904,391.328,86.974,390.398,85.827,390.398z M85.827,395.668c-1.147,0-2.077,0.93-2.077,2.077
				c0,1.147,0.93,2.077,2.077,2.077c1.147,0,2.077-0.93,2.077-2.077C87.904,396.598,86.974,395.668,85.827,395.668z"/>
			<path style="fill:#FE9C0A;" d="M59,410.363c1.147,0,2.077-0.93,2.077-2.077h-4.155C56.923,409.433,57.853,410.363,59,410.363z
				 M59,411.479c-1.147,0-2.077,0.93-2.077,2.077c0,1.147,0.93,2.077,2.077,2.077c1.147,0,2.077-0.93,2.077-2.077
				C61.077,412.409,60.147,411.479,59,411.479z M64.385,411.479c-0.017,0-0.032,0.005-0.048,0.005c-0.016,0-0.032-0.005-0.048-0.005
				c-1.147,0-2.077,0.93-2.077,2.077c0,1.147,0.93,2.077,2.077,2.077c0.017,0,0.032-0.004,0.048-0.005
				c0.016,0,0.032,0.005,0.048,0.005c1.147,0,2.077-0.93,2.077-2.077C66.462,412.409,65.532,411.479,64.385,411.479z
				 M69.673,410.363c1.147,0,2.077-0.93,2.077-2.077h-4.155C67.596,409.433,68.526,410.363,69.673,410.363z M64.288,410.363
				c0.017,0,0.032-0.004,0.048-0.005c0.016,0,0.032,0.005,0.048,0.005c1.147,0,2.077-0.93,2.077-2.077h-4.251
				C62.211,409.433,63.141,410.363,64.288,410.363z M53.615,410.363c1.147,0,2.077-0.93,2.077-2.077h-4.155
				C51.538,409.433,52.468,410.363,53.615,410.363z M75.058,411.479c-1.147,0-2.077,0.93-2.077,2.077
				c0,1.147,0.93,2.077,2.077,2.077c1.147,0,2.077-0.93,2.077-2.077C77.135,412.409,76.205,411.479,75.058,411.479z M69.673,411.479
				c-1.147,0-2.077,0.93-2.077,2.077c0,1.147,0.93,2.077,2.077,2.077c1.147,0,2.077-0.93,2.077-2.077
				C71.75,412.409,70.82,411.479,69.673,411.479z M75.058,410.363c1.147,0,2.077-0.93,2.077-2.077H72.98
				C72.98,409.433,73.91,410.363,75.058,410.363z M32.173,410.363c1.147,0,2.077-0.93,2.077-2.077h-4.155
				C30.095,409.433,31.026,410.363,32.173,410.363z M37.558,410.363c1.147,0,2.077-0.93,2.077-2.077H35.48
				C35.48,409.433,36.41,410.363,37.558,410.363z M37.558,411.479c-1.147,0-2.077,0.93-2.077,2.077c0,1.147,0.93,2.077,2.077,2.077
				c1.147,0,2.077-0.93,2.077-2.077C39.635,412.409,38.705,411.479,37.558,411.479z M32.173,411.479
				c-1.147,0-2.077,0.93-2.077,2.077c0,1.147,0.93,2.077,2.077,2.077c1.147,0,2.077-0.93,2.077-2.077
				C34.25,412.409,33.32,411.479,32.173,411.479z M48.23,410.363c1.147,0,2.077-0.93,2.077-2.077h-4.155
				C46.153,409.433,47.083,410.363,48.23,410.363z M42.942,411.479c-1.147,0-2.077,0.93-2.077,2.077c0,1.147,0.93,2.077,2.077,2.077
				c1.147,0,2.077-0.93,2.077-2.077C45.02,412.409,44.089,411.479,42.942,411.479z M53.615,411.479c-1.147,0-2.077,0.93-2.077,2.077
				c0,1.147,0.93,2.077,2.077,2.077c1.147,0,2.077-0.93,2.077-2.077C55.693,412.409,54.763,411.479,53.615,411.479z M42.942,410.363
				c1.147,0,2.077-0.93,2.077-2.077h-4.155C40.865,409.433,41.795,410.363,42.942,410.363z M48.23,411.479
				c-1.147,0-2.077,0.93-2.077,2.077c0,1.147,0.93,2.077,2.077,2.077c1.147,0,2.077-0.93,2.077-2.077
				C50.308,412.409,49.378,411.479,48.23,411.479z M96.597,416.749c-1.147,0-2.077,0.93-2.077,2.077c0,1.147,0.93,2.077,2.077,2.077
				c1.147,0,2.077-0.93,2.077-2.077C98.674,417.679,97.744,416.749,96.597,416.749z M96.597,410.363c1.147,0,2.077-0.93,2.077-2.077
				h-4.155C94.519,409.433,95.449,410.363,96.597,410.363z M96.597,411.479c-1.147,0-2.077,0.93-2.077,2.077
				c0,1.147,0.93,2.077,2.077,2.077c1.147,0,2.077-0.93,2.077-2.077C98.674,412.409,97.744,411.479,96.597,411.479z M80.442,411.479
				c-1.147,0-2.077,0.93-2.077,2.077c0,1.147,0.93,2.077,2.077,2.077c1.147,0,2.077-0.93,2.077-2.077
				C82.52,412.409,81.59,411.479,80.442,411.479z M91.212,411.479c-1.147,0-2.077,0.93-2.077,2.077c0,1.147,0.93,2.077,2.077,2.077
				c1.147,0,2.077-0.93,2.077-2.077C93.289,412.409,92.359,411.479,91.212,411.479z M101.981,411.479
				c-1.147,0-2.077,0.93-2.077,2.077c0,1.147,0.93,2.077,2.077,2.077c1.147,0,2.077-0.93,2.077-2.077
				C104.059,412.409,103.129,411.479,101.981,411.479z M105.289,408.286c0,1.147,0.93,2.077,2.077,2.077
				c1.147,0,2.077-0.93,2.077-2.077H105.289z M101.981,410.363c1.147,0,2.077-0.93,2.077-2.077h-4.155
				C99.904,409.433,100.834,410.363,101.981,410.363z M91.212,410.363c1.147,0,2.077-0.93,2.077-2.077h-4.155
				C89.135,409.433,90.065,410.363,91.212,410.363z M85.827,427.289c-1.147,0-2.077,0.93-2.077,2.077
				c0,1.147,0.93,2.077,2.077,2.077c1.147,0,2.077-0.93,2.077-2.077C87.904,428.219,86.974,427.289,85.827,427.289z M85.827,416.749
				c-1.147,0-2.077,0.93-2.077,2.077c0,1.147,0.93,2.077,2.077,2.077c1.147,0,2.077-0.93,2.077-2.077
				C87.904,417.679,86.974,416.749,85.827,416.749z M85.827,422.019c-1.147,0-2.077,0.93-2.077,2.077
				c0,1.147,0.93,2.077,2.077,2.077c1.147,0,2.077-0.93,2.077-2.077C87.904,422.949,86.974,422.019,85.827,422.019z M91.212,416.749
				c-1.147,0-2.077,0.93-2.077,2.077c0,1.147,0.93,2.077,2.077,2.077c1.147,0,2.077-0.93,2.077-2.077
				C93.289,417.679,92.359,416.749,91.212,416.749z M80.442,410.363c1.147,0,2.077-0.93,2.077-2.077h-4.155
				C78.365,409.433,79.295,410.363,80.442,410.363z M91.212,422.019c-1.147,0-2.077,0.93-2.077,2.077
				c0,1.147,0.93,2.077,2.077,2.077c1.147,0,2.077-0.93,2.077-2.077C93.289,422.949,92.359,422.019,91.212,422.019z M85.827,410.363
				c1.147,0,2.077-0.93,2.077-2.077H83.75C83.75,409.433,84.68,410.363,85.827,410.363z M85.827,411.479
				c-1.147,0-2.077,0.93-2.077,2.077c0,1.147,0.93,2.077,2.077,2.077c1.147,0,2.077-0.93,2.077-2.077
				C87.904,412.409,86.974,411.479,85.827,411.479z"/>
		</g>
		<g>
			<path style="fill:#FFBF0B;" d="M152.004,385.865c-1.594,0-2.891,1.297-2.891,2.89c0,1.594,1.297,2.891,2.891,2.891
				c1.594,0,2.89-1.297,2.89-2.891C154.894,387.161,153.598,385.865,152.004,385.865z M152.004,424.926
				c-1.594,0-2.891,1.297-2.891,2.89c0,1.594,1.297,2.89,2.891,2.89c1.594,0,2.89-1.297,2.89-2.89
				C154.894,426.223,153.598,424.926,152.004,424.926z M152.004,417.113c-1.594,0-2.891,1.297-2.891,2.891
				c0,1.594,1.297,2.89,2.891,2.89c1.594,0,2.89-1.297,2.89-2.89C154.894,418.41,153.598,417.113,152.004,417.113z M145.079,381.958
				c-1.594,0-2.89,1.297-2.89,2.89c0,1.594,1.296,2.89,2.89,2.89s2.891-1.297,2.891-2.89
				C147.97,383.255,146.673,381.958,145.079,381.958z M152.004,393.677c-1.594,0-2.891,1.297-2.891,2.89
				c0,1.594,1.297,2.891,2.891,2.891c1.594,0,2.89-1.297,2.89-2.891C154.894,394.974,153.598,393.677,152.004,393.677z
				 M152.004,409.301c-1.594,0-2.891,1.297-2.891,2.891c0,1.594,1.297,2.89,2.891,2.89c1.594,0,2.89-1.297,2.89-2.89
				C154.894,410.598,153.598,409.301,152.004,409.301z M152.004,401.489c-1.594,0-2.891,1.297-2.891,2.89
				c0,1.594,1.297,2.891,2.891,2.891c1.594,0,2.89-1.297,2.89-2.891C154.894,402.786,153.598,401.489,152.004,401.489z
				 M145.079,421.02c-1.594,0-2.89,1.297-2.89,2.891c0,1.594,1.296,2.89,2.89,2.89s2.891-1.297,2.891-2.89
				C147.97,422.316,146.673,421.02,145.079,421.02z M158.929,421.02c-1.594,0-2.891,1.297-2.891,2.891
				c0,1.594,1.297,2.89,2.891,2.89c1.594,0,2.89-1.297,2.89-2.89C161.819,422.316,160.522,421.02,158.929,421.02z M145.079,413.207
				c-1.594,0-2.89,1.297-2.89,2.891c0,1.594,1.296,2.89,2.89,2.89s2.891-1.297,2.891-2.89
				C147.97,414.504,146.673,413.207,145.079,413.207z M145.079,428.832c-1.594,0-2.89,1.297-2.89,2.89c0,1.594,1.296,2.89,2.89,2.89
				s2.891-1.297,2.891-2.89C147.97,430.129,146.673,428.832,145.079,428.832z M145.079,389.771c-1.594,0-2.89,1.297-2.89,2.89
				c0,1.594,1.296,2.891,2.89,2.891s2.891-1.297,2.891-2.891C147.97,391.068,146.673,389.771,145.079,389.771z M145.079,405.395
				c-1.594,0-2.89,1.297-2.89,2.891c0,1.594,1.296,2.89,2.89,2.89s2.891-1.297,2.891-2.89
				C147.97,406.692,146.673,405.395,145.079,405.395z M145.079,397.583c-1.594,0-2.89,1.297-2.89,2.89
				c0,1.594,1.296,2.891,2.89,2.891s2.891-1.297,2.891-2.891C147.97,398.88,146.673,397.583,145.079,397.583z M172.778,413.207
				c-1.594,0-2.891,1.297-2.891,2.891c0,1.594,1.297,2.89,2.891,2.89s2.89-1.297,2.89-2.89
				C175.668,414.504,174.371,413.207,172.778,413.207z M179.702,409.301c-1.594,0-2.89,1.297-2.89,2.891
				c0,1.594,1.297,2.89,2.89,2.89c1.594,0,2.891-1.297,2.891-2.89C182.593,410.598,181.296,409.301,179.702,409.301z
				 M172.778,397.583c-1.594,0-2.891,1.297-2.891,2.89c0,1.594,1.297,2.891,2.891,2.891s2.89-1.297,2.89-2.891
				C175.668,398.88,174.371,397.583,172.778,397.583z M172.778,405.395c-1.594,0-2.891,1.297-2.891,2.891
				c0,1.594,1.297,2.89,2.891,2.89s2.89-1.297,2.89-2.89C175.668,406.692,174.371,405.395,172.778,405.395z M179.702,401.489
				c-1.594,0-2.89,1.297-2.89,2.89c0,1.594,1.297,2.891,2.89,2.891c1.594,0,2.891-1.297,2.891-2.891
				C182.593,402.786,181.296,401.489,179.702,401.489z M165.853,393.677c-1.594,0-2.89,1.297-2.89,2.89
				c0,1.594,1.297,2.891,2.89,2.891c1.594,0,2.891-1.297,2.891-2.891C168.744,394.974,167.447,393.677,165.853,393.677z
				 M186.626,405.395c-1.594,0-2.89,1.297-2.89,2.891c0,1.594,1.297,2.89,2.89,2.89s2.89-1.297,2.89-2.89
				C189.517,406.692,188.22,405.395,186.626,405.395z M158.929,413.207c-1.594,0-2.891,1.297-2.891,2.891
				c0,1.594,1.297,2.89,2.891,2.89c1.594,0,2.89-1.297,2.89-2.89C161.819,414.504,160.522,413.207,158.929,413.207z
				 M158.929,389.771c-1.594,0-2.891,1.297-2.891,2.89s1.297,2.89,2.891,2.89c1.594,0,2.89-1.297,2.89-2.89
				S160.522,389.771,158.929,389.771z M158.929,397.583c-1.594,0-2.891,1.297-2.891,2.89c0,1.594,1.297,2.891,2.891,2.891
				c1.594,0,2.89-1.297,2.89-2.891C161.819,398.88,160.522,397.583,158.929,397.583z M158.929,405.395
				c-1.594,0-2.891,1.297-2.891,2.891c0,1.594,1.297,2.89,2.891,2.89c1.594,0,2.89-1.297,2.89-2.89
				C161.819,406.692,160.522,405.395,158.929,405.395z M165.853,417.113c-1.594,0-2.89,1.297-2.89,2.891
				c0,1.594,1.297,2.89,2.89,2.89c1.594,0,2.891-1.297,2.891-2.89C168.744,418.41,167.447,417.113,165.853,417.113z
				 M165.853,401.489c-1.594,0-2.89,1.297-2.89,2.89c0,1.594,1.297,2.891,2.89,2.891c1.594,0,2.891-1.297,2.891-2.891
				C168.744,402.786,167.447,401.489,165.853,401.489z M165.853,409.301c-1.594,0-2.89,1.297-2.89,2.891
				c0,1.594,1.297,2.89,2.89,2.89c1.594,0,2.891-1.297,2.891-2.89C168.744,410.598,167.447,409.301,165.853,409.301z"/>
			<g>
				<path style="fill:#FE9C0A;" d="M158.929,421.02c-1.594,0-2.891,1.297-2.891,2.891c0,1.594,1.297,2.89,2.891,2.89
					c1.594,0,2.89-1.297,2.89-2.89C161.819,422.316,160.522,421.02,158.929,421.02z"/>
				<path style="fill:#FE9C0A;" d="M152.004,417.113c-1.594,0-2.891,1.297-2.891,2.891c0,1.594,1.297,2.89,2.891,2.89
					c1.594,0,2.89-1.297,2.89-2.89C154.894,418.41,153.598,417.113,152.004,417.113z"/>
				<path style="fill:#FE9C0A;" d="M152.004,424.926c-1.594,0-2.891,1.297-2.891,2.89c0,1.594,1.297,2.89,2.891,2.89
					c1.594,0,2.89-1.297,2.89-2.89C154.894,426.223,153.598,424.926,152.004,424.926z"/>
				<path style="fill:#FE9C0A;" d="M152.004,409.301c-1.594,0-2.891,1.297-2.891,2.891c0,1.594,1.297,2.89,2.891,2.89
					c1.594,0,2.89-1.297,2.89-2.89C154.894,410.598,153.598,409.301,152.004,409.301z"/>
				<path style="fill:#FE9C0A;" d="M145.079,428.832c-1.594,0-2.89,1.297-2.89,2.89c0,1.594,1.296,2.89,2.89,2.89
					s2.891-1.297,2.891-2.89C147.97,430.129,146.673,428.832,145.079,428.832z"/>
				<path style="fill:#FE9C0A;" d="M145.079,411.177c1.594,0,2.891-1.297,2.891-2.89h-5.781
					C142.189,409.88,143.485,411.177,145.079,411.177z"/>
				<path style="fill:#FE9C0A;" d="M145.079,413.207c-1.594,0-2.89,1.297-2.89,2.891c0,1.594,1.296,2.89,2.89,2.89
					s2.891-1.297,2.891-2.89C147.97,414.504,146.673,413.207,145.079,413.207z"/>
				<path style="fill:#FE9C0A;" d="M145.079,421.02c-1.594,0-2.89,1.297-2.89,2.891c0,1.594,1.296,2.89,2.89,2.89
					s2.891-1.297,2.891-2.89C147.97,422.316,146.673,421.02,145.079,421.02z"/>
				<path style="fill:#FE9C0A;" d="M158.929,413.207c-1.594,0-2.891,1.297-2.891,2.891c0,1.594,1.297,2.89,2.891,2.89
					c1.594,0,2.89-1.297,2.89-2.89C161.819,414.504,160.522,413.207,158.929,413.207z"/>
				<path style="fill:#FE9C0A;" d="M172.778,411.177c1.594,0,2.89-1.297,2.89-2.89h-5.781
					C169.887,409.88,171.184,411.177,172.778,411.177z"/>
				<path style="fill:#FE9C0A;" d="M186.626,411.177c1.594,0,2.89-1.297,2.89-2.89h-5.781
					C183.736,409.88,185.033,411.177,186.626,411.177z"/>
				<path style="fill:#FE9C0A;" d="M172.778,413.207c-1.594,0-2.891,1.297-2.891,2.891c0,1.594,1.297,2.89,2.891,2.89
					s2.89-1.297,2.89-2.89C175.668,414.504,174.371,413.207,172.778,413.207z"/>
				<path style="fill:#FE9C0A;" d="M179.702,409.301c-1.594,0-2.89,1.297-2.89,2.891c0,1.594,1.297,2.89,2.89,2.89
					c1.594,0,2.891-1.297,2.891-2.89C182.593,410.598,181.296,409.301,179.702,409.301z"/>
				<path style="fill:#FE9C0A;" d="M158.929,411.177c1.594,0,2.89-1.297,2.89-2.89h-5.781
					C156.038,409.88,157.335,411.177,158.929,411.177z"/>
				<path style="fill:#FE9C0A;" d="M165.853,417.113c-1.594,0-2.89,1.297-2.89,2.891c0,1.594,1.297,2.89,2.89,2.89
					c1.594,0,2.891-1.297,2.891-2.89C168.744,418.41,167.447,417.113,165.853,417.113z"/>
				<path style="fill:#FE9C0A;" d="M165.853,409.301c-1.594,0-2.89,1.297-2.89,2.891c0,1.594,1.297,2.89,2.89,2.89
					c1.594,0,2.891-1.297,2.891-2.89C168.744,410.598,167.447,409.301,165.853,409.301z"/>
			</g>
		</g>
		<g>
			<g>
				<polygon style="fill:#FFBF0B;" points="215.688,379.846 233.949,408.286 215.688,436.725 275.843,408.286 				"/>
			</g>
			<g>
				<polygon style="fill:#FE9C0A;" points="233.949,408.286 215.688,436.725 275.843,408.286 				"/>
			</g>
		</g>
		<g>
			<polygon style="fill:#FFBF0B;" points="373.008,408.286 354.506,387.366 354.506,403.713 305.635,387.657 305.635,387.658 
				312.586,408.286 305.634,428.914 354.506,412.858 354.506,429.205 			"/>
			<polygon style="fill:#FE9C0A;" points="373.008,408.286 312.586,408.286 305.634,428.914 354.506,412.858 354.506,429.205 			"/>
		</g>
		<g>
			<polygon style="fill:#FFBF0B;" points="468.905,408.286 436.81,385.563 436.81,402.762 412.516,385.563 412.516,431.009 
				436.81,413.809 436.81,431.009 			"/>
			<polygon style="fill:#FE9C0A;" points="412.516,431.009 436.81,413.809 436.81,431.009 468.905,408.286 412.516,408.286 			"/>
		</g>
	</g>
</g>
</svg>
